<svg width="400" height="400" viewBox="0 0 400 400" fill="none" xmlns="http://www.w3.org/2000/svg">
  <rect width="400" height="400" fill="#F8F9FA"/>
  <!-- Body -->
  <path d="M200 280C255.228 280 300 235.228 300 180C300 124.772 255.228 80 200 80C144.772 80 100 124.772 100 180C100 235.228 144.772 280 200 280Z" fill="#E2E8F0"/>
  <!-- Ears -->
  <path d="M160 140C160 140 140 120 130 140C120 160 140 170 140 170" stroke="#94A3B8" stroke-width="8" stroke-linecap="round"/>
  <path d="M240 140C240 140 260 120 270 140C280 160 260 170 260 170" stroke="#94A3B8" stroke-width="8" stroke-linecap="round"/>
  <!-- Eyes -->
  <circle cx="170" cy="180" r="10" fill="#94A3B8"/>
  <circle cx="230" cy="180" r="10" fill="#94A3B8"/>
  <!-- Nose -->
  <path d="M200 200L190 220H210L200 200Z" fill="#94A3B8"/>
  <!-- Whiskers -->
  <line x1="160" y1="210" x2="130" y2="200" stroke="#94A3B8" stroke-width="2"/>
  <line x1="160" y1="220" x2="130" y2="220" stroke="#94A3B8" stroke-width="2"/>
  <line x1="160" y1="230" x2="130" y2="240" stroke="#94A3B8" stroke-width="2"/>
  <line x1="240" y1="210" x2="270" y2="200" stroke="#94A3B8" stroke-width="2"/>
  <line x1="240" y1="220" x2="270" y2="220" stroke="#94A3B8" stroke-width="2"/>
  <line x1="240" y1="230" x2="270" y2="240" stroke="#94A3B8" stroke-width="2"/>
</svg>